<svg id="Layer_2" data-name="Layer 2" xmlns="http://www.w3.org/2000/svg" viewBox="0 0 1500 1500"><path d="M1220.72,506.79V993.21H124.5V506.79H1220.72m31.61-100H92.89A68.58,68.58,0,0,0,24.5,475.17v549.66a68.58,68.58,0,0,0,68.39,68.38H1252.33a68.59,68.59,0,0,0,68.39-68.38V475.17a68.59,68.59,0,0,0-68.39-68.38Z"/><rect x="231.1" y="585.06" width="894.4" height="328.22" rx="12"/><path d="M1434.5,944.1h-57a12,12,0,0,1-12-12V567.9a12,12,0,0,1,12-12h57a41.12,41.12,0,0,1,41,41V903.1A41.12,41.12,0,0,1,1434.5,944.1Z"/></svg>